PathFileType	4	(X/Y/Z)	D:\TRACE\v60_Jaco2_6-2-23\JustArmDRS_Motion2_3-platform.trc
DataRate	CameraRate	NumFrames	NumMarkers	Units	OrigDataRate	OrigDataStartFrame	OrigNumFrames
100.00	100.00	      54	5	mm	100.00	3485	      6969
Frame#	Time	Left_Front			Right_Front			Left_Aft			Right_Aft			Post			
		X1	Y1	Z1	X2	Y2	Z2	X3	Y3	Z3	X4	Y4	Z4	X5	Y5	Z5	

3485	34.840	-751.02368	50.75924	-627.99097	818.93622	51.77773	-633.24835	-659.15912	-21.62063	505.00952	782.90558	-23.49338	514.36926	36.17066	1368.24963	-878.60449	
3486	34.850	-750.72314	51.71735	-627.70764	819.36469	53.10219	-632.91602	-658.84167	-22.67150	505.19562	783.11761	-24.41445	514.57068	36.58258	1369.33606	-873.02710	
3487	34.860	-750.32410	53.31362	-627.42816	819.46613	54.15757	-632.48132	-658.66608	-23.38083	505.39456	783.16010	-25.23867	514.78741	36.79045	1370.93591	-867.87646	
3488	34.870	-750.33508	54.15505	-626.87085	819.46948	55.06522	-632.37543	-658.64990	-24.08043	505.59290	783.50458	-26.10298	514.96527	36.23192	1372.43909	-862.25232	
3489	34.880	-750.14856	55.27187	-626.51782	819.66266	56.47332	-631.88538	-658.38037	-25.10553	505.82394	783.87103	-26.71364	515.79285	36.49731	1373.54114	-856.35602	
3490	34.890	-749.85278	56.26425	-626.16913	819.76672	57.30532	-631.67377	-658.20837	-25.74153	505.97586	784.09546	-27.76960	515.73071	36.38609	1374.90906	-850.35834	
3491	34.900	-749.86163	57.29478	-626.02142	819.95117	58.55816	-631.07660	-658.23383	-26.22441	506.23822	783.84229	-28.48762	516.01135	35.91450	1376.23523	-846.26227	
3492	34.910	-749.83386	58.45276	-625.56677	819.80731	59.63792	-630.97882	-658.15454	-27.20179	506.49362	784.14862	-28.93936	516.47656	35.96859	1377.49646	-843.58270	
3493	34.920	-749.90125	59.11757	-625.24365	819.83728	60.53208	-630.53925	-658.13818	-27.83143	506.59811	784.20056	-29.86681	516.25885	35.95481	1378.98730	-841.70422	
3494	34.930	-750.00500	59.98918	-624.75146	819.88739	61.31650	-630.26636	-658.23840	-28.42062	506.60126	784.05042	-30.72885	516.27264	36.27716	1379.91174	-841.45215	
3495	34.940	-749.94012	61.06843	-624.63019	820.00989	62.15705	-630.03967	-658.08264	-29.07263	506.85434	783.98798	-31.33962	516.37207	37.01389	1381.24011	-842.34546	
3496	34.950	-750.19458	62.15720	-624.38306	819.97241	62.89789	-629.77991	-658.10394	-29.84310	507.10269	784.14990	-31.91790	516.67096	36.87844	1382.29919	-843.56500	
3497	34.960	-750.23132	62.74323	-624.00153	819.86823	63.58635	-629.40460	-658.21466	-30.31229	507.15118	783.93719	-32.10442	517.52264	37.37786	1383.54700	-844.25415	
3498	34.970	-750.36224	63.45396	-623.81818	819.53540	64.39285	-629.22443	-658.56262	-30.92035	507.23190	783.51740	-33.16084	517.36804	37.15009	1385.03101	-844.31763	
3499	34.980	-750.72968	64.27509	-623.65436	819.29156	65.33940	-628.83423	-658.74243	-31.36109	507.43268	783.49286	-33.57863	517.19415	36.69878	1386.32764	-844.43164	
3500	34.990	-751.02649	65.22057	-623.43048	818.98541	66.28166	-628.50305	-659.01300	-32.01483	507.55045	783.10345	-34.45702	517.38843	36.07424	1387.54675	-844.56805	
3501	35.000	-751.44208	65.93246	-623.34686	818.75366	66.95271	-628.29181	-659.60095	-32.68456	507.83740	782.90009	-34.65423	517.54138	35.65711	1388.56604	-843.76801	
3502	35.010	-751.69196	66.44673	-623.04224	818.34723	67.43055	-628.24188	-659.74554	-33.09388	508.03909	782.54620	-34.49362	516.94672	35.83826	1389.35962	-842.80865	
3503	35.020	-752.16278	66.95541	-622.67609	817.95929	67.87596	-628.06909	-660.00732	-33.37093	508.01178	781.49951	-34.45016	517.20569	35.77228	1390.08228	-841.80951	
3504	35.030	-752.40222	67.47319	-622.16479	817.70856	68.37086	-627.79370	-660.52441	-33.83543	508.07376	781.01733	-34.95619	517.44641	35.67727	1390.76831	-840.03357	
3505	35.040	-752.72906	67.92574	-621.89032	817.31165	69.15537	-627.55408	-660.79980	-34.31441	508.16736	781.39142	-35.95814	517.52112	34.94650	1391.52527	-838.58215	
3506	35.050	-753.12390	68.42105	-621.82220	816.86230	69.65057	-627.46533	-660.91968	-34.61674	508.24634	781.15076	-36.42448	517.76135	34.25137	1392.13196	-836.11389	
3507	35.060	-753.44751	69.02600	-621.85474	816.28314	70.04569	-627.34424	-661.40076	-35.20515	508.29639	780.73254	-36.98150	517.52875	33.58613	1392.67786	-833.78168	
3508	35.070	-753.88440	69.73431	-621.95898	815.78638	70.41793	-627.16199	-661.76855	-35.69855	508.48746	780.20319	-37.36235	517.81537	33.23194	1393.22278	-830.74133	
3509	35.080	-754.47998	70.18651	-621.78021	815.28229	70.71829	-627.09711	-662.12769	-36.17222	508.58643	779.06274	-37.24134	518.09003	32.66073	1393.45605	-827.95160	
3510	35.090	-755.12396	70.66718	-621.70544	814.85425	71.00153	-626.98120	-663.18085	-35.70748	508.54126	778.61786	-37.59333	518.12164	32.38457	1393.44714	-824.40924	
3511	35.100	-755.68652	70.99253	-621.58887	814.29749	71.48428	-626.78992	-663.83795	-36.02292	508.61560	778.67743	-38.29171	518.27203	31.45950	1393.67554	-820.81439	
3512	35.110	-756.00647	71.09217	-621.35583	813.90063	71.71603	-626.67200	-664.10638	-36.25325	508.72113	778.47174	-38.56763	518.60022	30.97889	1393.91101	-817.24237	
3513	35.120	-756.54645	71.45909	-621.11676	813.33435	72.12122	-626.57336	-665.08887	-36.09050	509.06146	777.83411	-38.74899	518.58331	30.08049	1394.45764	-814.85944	
3514	35.130	-756.95721	71.70578	-621.06604	812.65546	72.58183	-626.39954	-665.65320	-36.35004	508.87762	777.05164	-39.12086	518.43860	29.38664	1394.92407	-813.45099	
3515	35.140	-757.55975	71.85594	-620.94202	812.25311	72.76157	-626.32880	-666.07733	-36.54650	508.98346	776.11914	-38.86702	518.67749	28.70196	1395.13110	-813.01807	
3516	35.150	-758.42609	72.02680	-620.94940	811.82465	72.84296	-626.23767	-666.57745	-36.82474	509.12531	776.08643	-39.40265	518.77429	28.26660	1395.46436	-814.39545	
3517	35.160	-758.91687	72.12344	-620.98199	811.00653	72.89393	-626.20581	-667.14508	-36.93264	509.03751	775.50439	-39.50852	518.79901	27.97078	1395.68860	-815.98224	
3518	35.170	-759.66119	72.24818	-620.94836	810.40979	73.07024	-626.16602	-667.64160	-36.98190	509.14975	774.44244	-39.26410	519.05756	27.61917	1395.94409	-818.10150	
3519	35.180	-760.16644	72.17361	-620.80273	809.80542	73.01924	-626.28302	-668.41278	-36.97988	509.09512	774.31885	-39.57216	518.71021	27.35890	1396.07495	-820.41327	
3520	35.190	-760.59509	72.12768	-620.76648	809.24054	73.03824	-626.27521	-669.17303	-37.00337	509.03601	773.23071	-39.41509	518.88965	26.66474	1396.34692	-822.08905	
3521	35.200	-761.47070	72.18012	-620.65851	808.73718	72.96505	-626.21954	-669.73096	-37.03000	508.99451	772.78992	-39.59254	518.89362	26.38872	1396.31396	-823.02509	
3522	35.210	-762.15967	72.28127	-620.81348	807.89032	72.95534	-626.19189	-670.29828	-36.80815	508.93008	772.14648	-39.56810	518.84741	25.35177	1396.45886	-823.88708	
3523	35.220	-762.99213	72.11600	-620.97968	807.02722	72.85648	-626.22064	-671.29633	-36.76600	508.89224	771.41119	-39.42659	519.03198	24.28143	1396.35730	-824.38068	
3524	35.230	-763.77063	71.93121	-620.91132	806.19568	72.60643	-626.28247	-671.81927	-36.64008	508.98730	770.73645	-39.65134	518.74432	23.61266	1396.07312	-824.71509	
3525	35.240	-764.08417	71.83978	-620.94464	805.87311	72.55029	-626.24188	-672.43341	-36.61282	509.08890	769.48389	-39.42142	519.16595	23.24119	1395.90649	-824.76361	
3526	35.250	-765.15686	71.83789	-620.93268	805.06927	72.43080	-626.33551	-673.35437	-36.62065	508.95789	768.93518	-39.33001	518.69031	22.37494	1395.57751	-824.33301	
3527	35.260	-765.92200	71.60959	-621.18286	804.13525	72.22916	-626.35223	-674.09393	-36.48126	508.82846	768.39020	-39.08933	518.75336	21.33008	1395.23743	-823.35901	
3528	35.270	-766.80804	71.29303	-621.19019	803.17682	71.84978	-626.50647	-674.70880	-36.31950	508.73578	767.66217	-38.98196	518.64233	20.51857	1394.79517	-822.33502	
3529	35.280	-767.41553	71.24577	-621.29913	802.62964	71.68710	-626.57025	-675.85913	-36.05843	508.65134	766.58771	-38.75518	518.66595	20.02883	1394.14673	-820.87622	
3530	35.290	-767.95154	70.87730	-621.39056	801.82745	71.39632	-626.60529	-676.61847	-35.75548	508.71844	765.84393	-38.50520	518.99573	18.64950	1393.68701	-819.49536	
3531	35.300	-769.21765	70.37597	-621.27032	801.04797	71.14156	-626.57141	-677.22491	-35.63783	508.74060	765.22058	-38.16860	518.84790	17.72816	1393.34326	-818.49945	
3532	35.310	-770.03711	70.16937	-621.51990	799.94519	70.62981	-626.82141	-678.14215	-35.43955	508.72855	764.43756	-37.84489	518.71906	16.82296	1392.80334	-818.38794	
3533	35.320	-770.74615	69.37337	-621.82489	799.19440	70.42847	-627.05902	-679.05420	-35.03564	508.66968	763.57788	-37.48760	518.73254	15.56305	1392.18188	-819.46759	
3534	35.330	-771.45728	68.88978	-621.81342	798.39966	70.12118	-627.08142	-679.89832	-34.62912	508.45938	762.36969	-37.11843	519.04150	14.83203	1391.49243	-821.56213	
3535	35.340	-772.64673	68.49153	-621.83533	797.31885	69.24842	-627.39288	-680.88312	-34.24228	508.50534	761.12372	-36.74174	518.27185	14.18947	1390.84509	-824.29303	
3536	35.350	-773.57544	67.86442	-622.18500	796.40869	68.67650	-627.54407	-681.65533	-33.90192	508.43762	760.72467	-36.47510	518.06561	13.54676	1390.16492	-827.65778	
3537	35.360	-774.51984	67.66226	-622.56348	795.76709	68.22072	-627.55304	-682.57928	-33.53036	508.20651	759.74908	-35.94015	517.86609	12.89139	1389.59155	-830.73853	
3538	35.370	-775.28076	66.87807	-622.61005	794.69257	67.37143	-627.88507	-683.48053	-32.89235	508.07828	758.95288	-35.57154	517.71796	12.52095	1388.92371	-833.84894	
